<svg xmlns="http://www.w3.org/2000/svg" version="1.1" xmlns:xlink="http://www.w3.org/1999/xlink" xmlns:svgjs="http://svgjs.dev/svgjs" width="1000" height="222" viewBox="0 0 1000 222"><g transform="matrix(1,0,0,1,-0.6060606060606233,0.34579628137677787)"><svg viewBox="0 0 396 88" data-background-color="#ffffff" preserveAspectRatio="xMidYMid meet" height="222" width="1000" xmlns="http://www.w3.org/2000/svg" xmlns:xlink="http://www.w3.org/1999/xlink"><g id="tight-bounds" transform="matrix(1,0,0,1,0.2400000000000091,-0.13707239982502983)"><svg viewBox="0 0 395.52 88.27411271645265" height="88.27411271645265" width="395.52"><g><svg viewBox="0 0 540.3991371229815 120.60895616471437" height="88.27411271645265" width="395.52"><g transform="matrix(1,0,0,1,144.87913712298152,34.60281743253769)"><svg viewBox="0 0 395.52 51.40332129963899" height="51.40332129963899" width="395.52"><g id="textblocktransform"><svg viewBox="0 0 395.52 51.40332129963899" height="51.40332129963899" width="395.52" id="textblock"><g><svg viewBox="0 0 395.52 51.40332129963899" height="51.40332129963899" width="395.52"><g transform="matrix(1,0,0,1,0,0)"><svg width="395.52" viewBox="1.149999976158142 -35.5 276.9800109863281 36" height="51.40332129963899" data-palette-color="#f3a83c"><path d="M17.4 0L12.8 0Q12.3 0 11.95-0.35 11.6-0.7 11.6-1.2L11.6-1.2 11.6-28.85 2.35-28.85Q1.85-28.85 1.5-29.2 1.15-29.55 1.15-30.05L1.15-30.05 1.15-33.75Q1.15-34.3 1.5-34.65 1.85-35 2.35-35L2.35-35 27.85-35Q28.4-35 28.75-34.65 29.1-34.3 29.1-33.75L29.1-33.75 29.1-30.05Q29.1-29.55 28.75-29.2 28.4-28.85 27.85-28.85L27.85-28.85 18.65-28.85 18.65-1.2Q18.65-0.7 18.3-0.35 17.95 0 17.4 0L17.4 0ZM57.75 0L35.35 0Q34.85 0 34.5-0.35 34.15-0.7 34.15-1.2L34.15-1.2 34.15-33.75Q34.15-34.3 34.5-34.65 34.85-35 35.35-35L35.35-35 57.35-35Q57.9-35 58.25-34.65 58.6-34.3 58.6-33.75L58.6-33.75 58.6-30.45Q58.6-29.95 58.25-29.6 57.9-29.25 57.35-29.25L57.35-29.25 40.9-29.25 40.9-20.4 56.25-20.4Q56.8-20.4 57.15-20.08 57.5-19.75 57.5-19.2L57.5-19.2 57.5-16.1Q57.5-15.55 57.15-15.23 56.8-14.9 56.25-14.9L56.25-14.9 40.9-14.9 40.9-5.75 57.75-5.75Q58.3-5.75 58.65-5.4 59-5.05 59-4.5L59-4.5 59-1.2Q59-0.7 58.65-0.35 58.3 0 57.75 0L57.75 0ZM78.75 0.5L78.75 0.5Q74.09 0.5 70.87-1.13 67.64-2.75 65.94-5.78 64.25-8.8 64.05-13.05L64.05-13.05Q63.99-15.1 63.99-17.45 63.99-19.8 64.05-21.95L64.05-21.95Q64.25-26.15 65.97-29.2 67.69-32.25 70.92-33.88 74.14-35.5 78.75-35.5L78.75-35.5Q82.14-35.5 84.84-34.6 87.55-33.7 89.44-32.13 91.34-30.55 92.39-28.45 93.44-26.35 93.5-23.9L93.5-23.9Q93.55-23.45 93.22-23.15 92.89-22.85 92.44-22.85L92.44-22.85 87.69-22.85Q87.14-22.85 86.8-23.13 86.44-23.4 86.3-24.05L86.3-24.05Q85.5-27.35 83.55-28.55 81.59-29.75 78.69-29.75L78.69-29.75Q75.34-29.75 73.34-27.88 71.34-26 71.19-21.7L71.19-21.7Q71.05-17.6 71.19-13.3L71.19-13.3Q71.34-9 73.34-7.13 75.34-5.25 78.69-5.25L78.69-5.25Q81.59-5.25 83.57-6.48 85.55-7.7 86.3-10.95L86.3-10.95Q86.44-11.65 86.8-11.9 87.14-12.15 87.69-12.15L87.69-12.15 92.44-12.15Q92.89-12.15 93.22-11.85 93.55-11.55 93.5-11.1L93.5-11.1Q93.44-8.65 92.39-6.55 91.34-4.45 89.44-2.88 87.55-1.3 84.84-0.4 82.14 0.5 78.75 0.5ZM105.19 0L100.64 0Q100.14 0 99.79-0.33 99.44-0.65 99.44-1.2L99.44-1.2 99.44-33.75Q99.44-34.3 99.79-34.65 100.14-35 100.64-35L100.64-35 105.19-35Q105.74-35 106.07-34.65 106.39-34.3 106.39-33.75L106.39-33.75 106.39-20.85 121.14-20.85 121.14-33.75Q121.14-34.3 121.49-34.65 121.84-35 122.34-35L122.34-35 126.84-35Q127.39-35 127.74-34.65 128.09-34.3 128.09-33.75L128.09-33.75 128.09-1.2Q128.09-0.7 127.74-0.35 127.39 0 126.84 0L126.84 0 122.34 0Q121.84 0 121.49-0.35 121.14-0.7 121.14-1.2L121.14-1.2 121.14-14.6 106.39-14.6 106.39-1.2Q106.39-0.7 106.07-0.35 105.74 0 105.19 0L105.19 0ZM159.49 0.5L159.49 0.5Q154.84 0.5 151.71-0.88 148.59-2.25 146.96-4.48 145.34-6.7 145.24-9.15L145.24-9.15Q145.24-9.6 145.54-9.9 145.84-10.2 146.29-10.2L146.29-10.2 150.74-10.2Q151.39-10.2 151.71-9.93 152.04-9.65 152.29-9.25L152.29-9.25Q152.59-8.3 153.44-7.38 154.29-6.45 155.76-5.85 157.24-5.25 159.49-5.25L159.49-5.25Q163.09-5.25 164.86-6.45 166.64-7.65 166.64-9.7L166.64-9.7Q166.64-11.15 165.69-12.03 164.74-12.9 162.76-13.63 160.79-14.35 157.54-15.15L157.54-15.15Q153.79-16.05 151.26-17.32 148.74-18.6 147.46-20.55 146.19-22.5 146.19-25.5L146.19-25.5Q146.19-28.4 147.76-30.65 149.34-32.9 152.26-34.2 155.19-35.5 159.24-35.5L159.24-35.5Q162.49-35.5 164.99-34.63 167.49-33.75 169.14-32.33 170.79-30.9 171.66-29.28 172.54-27.65 172.59-26.1L172.59-26.1Q172.59-25.7 172.31-25.38 172.04-25.05 171.54-25.05L171.54-25.05 166.89-25.05Q166.49-25.05 166.09-25.25 165.69-25.45 165.44-26L165.44-26Q165.14-27.55 163.49-28.65 161.84-29.75 159.24-29.75L159.24-29.75Q156.54-29.75 154.89-28.75 153.24-27.75 153.24-25.65L153.24-25.65Q153.24-24.25 154.06-23.33 154.89-22.4 156.71-21.7 158.54-21 161.54-20.2L161.54-20.2Q165.79-19.25 168.49-18 171.19-16.75 172.44-14.83 173.69-12.9 173.69-9.95L173.69-9.95Q173.69-6.65 171.91-4.33 170.14-2 166.94-0.75 163.74 0.5 159.49 0.5ZM185.19 0L180.63 0Q180.13 0 179.78-0.33 179.44-0.65 179.44-1.2L179.44-1.2 179.44-33.75Q179.44-34.3 179.78-34.65 180.13-35 180.63-35L180.63-35 185.19-35Q185.73-35 186.06-34.65 186.38-34.3 186.38-33.75L186.38-33.75 186.38-20.85 201.13-20.85 201.13-33.75Q201.13-34.3 201.49-34.65 201.84-35 202.34-35L202.34-35 206.84-35Q207.38-35 207.74-34.65 208.09-34.3 208.09-33.75L208.09-33.75 208.09-1.2Q208.09-0.7 207.74-0.35 207.38 0 206.84 0L206.84 0 202.34 0Q201.84 0 201.49-0.35 201.13-0.7 201.13-1.2L201.13-1.2 201.13-14.6 186.38-14.6 186.38-1.2Q186.38-0.7 186.06-0.35 185.73 0 185.19 0L185.19 0ZM229.33 0.5L229.33 0.5Q224.88 0.5 221.68-0.98 218.48-2.45 216.68-5.53 214.88-8.6 214.73-13.2L214.73-13.2Q214.68-15.35 214.68-17.45 214.68-19.55 214.73-21.75L214.73-21.75Q214.88-26.3 216.73-29.35 218.58-32.4 221.81-33.95 225.03-35.5 229.33-35.5L229.33-35.5Q233.63-35.5 236.88-33.95 240.13-32.4 241.98-29.35 243.83-26.3 243.98-21.75L243.98-21.75Q244.08-19.55 244.08-17.45 244.08-15.35 243.98-13.2L243.98-13.2Q243.83-8.6 242.03-5.53 240.23-2.45 237.01-0.98 233.78 0.5 229.33 0.5ZM229.33-5.25L229.33-5.25Q232.58-5.25 234.63-7.18 236.68-9.1 236.83-13.45L236.83-13.45Q236.93-15.65 236.93-17.53 236.93-19.4 236.83-21.55L236.83-21.55Q236.73-24.45 235.76-26.28 234.78-28.1 233.13-28.93 231.48-29.75 229.33-29.75L229.33-29.75Q227.23-29.75 225.58-28.93 223.93-28.1 222.96-26.28 221.98-24.45 221.88-21.55L221.88-21.55Q221.83-19.4 221.83-17.53 221.83-15.65 221.88-13.45L221.88-13.45Q222.03-9.1 224.08-7.18 226.13-5.25 229.33-5.25ZM256.58 0L251.83 0Q251.33 0 250.98-0.35 250.63-0.7 250.63-1.2L250.63-1.2 250.63-33.75Q250.63-34.3 250.98-34.65 251.33-35 251.83-35L251.83-35 265.23-35Q269.13-35 272.03-33.77 274.93-32.55 276.53-30.08 278.13-27.6 278.13-23.9L278.13-23.9Q278.13-20.15 276.53-17.73 274.93-15.3 272.03-14.1 269.13-12.9 265.23-12.9L265.23-12.9 257.78-12.9 257.78-1.2Q257.78-0.7 257.46-0.35 257.13 0 256.58 0L256.58 0ZM257.68-29.45L257.68-18.45 264.98-18.45Q267.88-18.45 269.43-19.83 270.98-21.2 270.98-23.9L270.98-23.9Q270.98-26.4 269.53-27.93 268.08-29.45 264.98-29.45L264.98-29.45 257.68-29.45Z" opacity="1" transform="matrix(1,0,0,1,0,0)" fill="#f3a83c" class="undefined-text-0" data-fill-palette-color="primary" id="text-0"></path></svg></g></svg></g></svg></g></svg></g><g><svg viewBox="0 0 120.60895616471437 120.60895616471437" height="120.60895616471437" width="120.60895616471437"><g><svg></svg></g><g id="icon-0"><svg viewBox="0 0 120.60895616471437 120.60895616471437" height="120.60895616471437" width="120.60895616471437"><g><path d="M0 60.304c0-33.305 26.999-60.304 60.304-60.304 33.305 0 60.304 26.999 60.305 60.304 0 33.305-26.999 60.304-60.305 60.305-33.305 0-60.304-26.999-60.304-60.305zM60.304 115.973c30.745 0 55.669-24.924 55.669-55.669 0-30.745-24.924-55.669-55.669-55.668-30.745 0-55.669 24.924-55.668 55.668 0 30.745 24.924 55.669 55.668 55.669z" data-fill-palette-color="accent" fill="#f3a83c" stroke="transparent"></path></g><g transform="matrix(1,0,0,1,29.58259372535653,29.58259372535653)"><svg viewBox="0 0 61.44376871400131 61.44376871400131" height="61.44376871400131" width="61.44376871400131"><g><svg xmlns="http://www.w3.org/2000/svg" xmlns:xlink="http://www.w3.org/1999/xlink" version="1.0" x="0" y="0" viewBox="1 1 48 48" enable-background="new 0 0 50 50" xml:space="preserve" height="61.44376871400131" width="61.44376871400131" class="icon-s-0" data-fill-palette-color="accent" id="s-0"><g fill="#f3a83c" data-fill-palette-color="accent"><g fill="#f3a83c" data-fill-palette-color="accent"><rect x="1" y="1" fill="#f3a83c" width="23" height="5" data-fill-palette-color="accent"></rect><rect x="1" y="10" fill="#f3a83c" width="23" height="5" data-fill-palette-color="accent"></rect><rect x="1" y="19" fill="#f3a83c" width="23" height="5" data-fill-palette-color="accent"></rect></g><g fill="#f3a83c" data-fill-palette-color="accent"><rect x="26" y="26" fill="#f3a83c" width="23" height="5" data-fill-palette-color="accent"></rect><rect x="26" y="35" fill="#f3a83c" width="23" height="5" data-fill-palette-color="accent"></rect><rect x="26" y="44" fill="#f3a83c" width="23" height="5" data-fill-palette-color="accent"></rect></g><g fill="#f3a83c" data-fill-palette-color="accent"><rect x="19" y="26" fill="#f3a83c" width="5" height="23" data-fill-palette-color="accent"></rect><rect x="10" y="26" fill="#f3a83c" width="5" height="23" data-fill-palette-color="accent"></rect><rect x="1" y="26" fill="#f3a83c" width="5" height="23" data-fill-palette-color="accent"></rect></g><g fill="#f3a83c" data-fill-palette-color="accent"><rect x="44" y="1" fill="#f3a83c" width="5" height="23" data-fill-palette-color="accent"></rect><rect x="35" y="1" fill="#f3a83c" width="5" height="23" data-fill-palette-color="accent"></rect><rect x="26" y="1" fill="#f3a83c" width="5" height="23" data-fill-palette-color="accent"></rect></g></g></svg></g></svg></g></svg></g></svg></g></svg></g><defs></defs></svg><rect width="395.52" height="88.27411271645265" fill="none" stroke="none" visibility="hidden"></rect></g></svg></g></svg>